<?xml version="1.0" encoding="UTF-8"?>
<svg width="38px" height="38px" viewBox="0 0 38 38" version="1.1" xmlns="http://www.w3.org/2000/svg" xmlns:xlink="http://www.w3.org/1999/xlink">
    <title>形状结合</title>
    <g id="主播端" stroke="none" stroke-width="1" fill="none" fill-rule="evenodd">
        <g id="底端视频预览备份-32" transform="translate(-429.000000, -1032.000000)">
            <g id="形状结合" transform="translate(430.000000, 1033.000000)">
                <g id="编组-6" transform="translate(6.000000, 0.000000)" fill="#FFFFFF">
                    <path d="M24.5555556,15.675 C25.3528889,15.675 26,16.2678 26,16.9982143 C26,23.1167571 20.9343333,28.1674661 14.4444444,28.8290732 L14.4444444,28.8290732 L14.4444444,31.5535714 L20.2222222,31.5535714 C21.0195556,31.5535714 21.6666667,32.1463714 21.6666667,32.8767857 C21.6666667,33.6072 21.0195556,34.2 20.2222222,34.2 L20.2222222,34.2 L5.77777778,34.2 C4.98044444,34.2 4.33333333,33.6072 4.33333333,32.8767857 C4.33333333,32.1463714 4.98044444,31.5535714 5.77777778,31.5535714 L5.77777778,31.5535714 L11.5555556,31.5535714 L11.5555556,28.8290732 C5.06566667,28.1687893 0,23.1167571 0,16.9982143 C0,16.2678 0.647111111,15.675 1.44444444,15.675 C2.24177778,15.675 2.88888889,16.2678 2.88888889,16.9982143 C2.88888889,22.1137607 7.41577778,26.2607143 13,26.2607143 L13,26.2607143 L13.2878784,26.2570323 C18.7389762,26.117428 23.1111111,22.0255616 23.1111111,16.9982143 C23.1111111,16.2678 23.7582222,15.675 24.5555556,15.675 Z M13,0 C16.8004353,0 19.8823529,3.01332083 19.8823529,6.72916667 L19.8823529,17.4958333 C19.8823529,21.1326186 16.9301856,24.0964556 13.2415824,24.2209299 L13,24.225 C9.19956471,24.225 6.11764706,21.2116792 6.11764706,17.4958333 L6.11764706,6.72916667 C6.11764706,3.09238138 9.06981444,0.128544447 12.7584176,0.00407007543 L13,0 Z" id="形状结合备份-2"></path>
                </g>
                <path d="M34.1772926,-0.497514761 C34.7371203,-0.523072112 35.3063477,-0.350946735 35.7542792,0.0190837165 C36.182235,0.37261242 36.4250529,0.842239332 36.4852092,1.32668107 C36.5479962,1.83230807 36.4122376,2.35740275 36.0672519,2.79249689 L36.0672519,2.79249689 L3.34066146,35.836835 C2.93398263,36.2472363 2.38467613,36.4718597 1.82270739,36.4975148 C1.26287973,36.5230721 0.693652325,36.3509467 0.245720755,35.9809163 C-0.182235017,35.6273876 -0.425052858,35.1577607 -0.485209184,34.6733189 C-0.547996224,34.1676919 -0.412237637,33.6425972 -0.0672519075,33.2075031 L-0.0672519075,33.2075031 L32.6593385,0.163164997 C33.0660174,-0.24723632 33.6153239,-0.471859664 34.1772926,-0.497514761 Z" id="直线" stroke="#383C4A" fill="#F06130" fill-rule="nonzero"></path>
            </g>
        </g>
    </g>
</svg>